<?xml version="1.0" encoding="UTF-8"?>
<svg width="20px" height="15px" viewBox="0 0 20 15" version="1.1" xmlns="http://www.w3.org/2000/svg" xmlns:xlink="http://www.w3.org/1999/xlink">
    <!-- Generator: Sketch 49.1 (51147) - http://www.bohemiancoding.com/sketch -->
    <title>Icon/email</title>
    <desc>Created with Sketch.</desc>
    <defs>
        <path d="M1.83924596,1.74705882 C3.00203269,2.56207955 4.98118771,3.96577527 5.42151168,4.27344904 C5.57565318,4.38108676 5.57565318,4.38108676 5.72992821,4.48852867 C6.93230215,5.32530014 7.91537565,5.98849779 8.67734074,6.47095131 C9.10279688,6.74033741 9.44992028,6.9471594 9.70825331,7.08472856 C9.83857332,7.15412741 9.94872017,7.20116411 9.90864548,7.21403667 C10.1997852,7.11886852 13.2862927,5.07858888 17.932066,1.74705882 L1.83924596,1.74705882 Z M18.0529412,3.8496101 C13.0014624,7.45970313 10.6470959,8.96465784 9.87086496,8.96465784 C9.17349955,8.96465784 7.80175861,8.09611249 4.64303477,5.89785293 C4.48727295,5.78937557 4.48727295,5.78937557 4.33176711,5.68078512 C3.9562241,5.41837665 2.78042431,4.58557238 1.74705882,3.85607503 L1.74705882,12.2294118 L18.0529412,12.2294118 L18.0529412,3.8496101 Z M1.16470588,0 L18.6352941,0 C19.2785434,0 19.8,0.521456585 19.8,1.16470588 L19.8,12.8117647 C19.8,13.455014 19.2785434,13.9764706 18.6352941,13.9764706 L1.16470588,13.9764706 C0.521456585,13.9764706 0,13.455014 0,12.8117647 L0,1.16470588 C0,0.521456585 0.521456585,0 1.16470588,0 Z" id="path-1"></path>
    </defs>
    <g id="Symbols" stroke="none" stroke-width="1" fill="none" fill-rule="evenodd">
        <g id="Module/Footer" transform="translate(-133.000000, -121.000000)">
            <g id="Group" transform="translate(132.000000, 117.000000)">
                <g id="icon/email2">
                    <g id="color-palette/white-1" transform="translate(1.100000, 4.400000)">
                        <mask id="mask-2" fill="white">
                            <use xlink:href="#path-1"></use>
                        </mask>
                        <use id="Mask" fill="#979797" fill-rule="nonzero" xlink:href="#path-1"></use>
                        <g id="color-palette/gray-80" mask="url(#mask-2)" fill="#3E4659">
                            <g transform="translate(-2.329412, -4.658824)" id="Rectangle-Copy-2">
                                <rect x="0" y="0" width="23" height="23"></rect>
                            </g>
                        </g>
                    </g>
                </g>
            </g>
        </g>
    </g>
</svg>