<?xml version="1.0" encoding="UTF-8"?>
<svg width="20px" height="19px" viewBox="0 0 20 19" version="1.1" xmlns="http://www.w3.org/2000/svg" xmlns:xlink="http://www.w3.org/1999/xlink">
    <!-- Generator: Sketch 49.1 (51147) - http://www.bohemiancoding.com/sketch -->
    <title>Icon/phone</title>
    <desc>Created with Sketch.</desc>
    <defs>
        <path d="M1.45453799,1.79273362 C1.22944609,5.68688102 2.55429726,9.3203583 5.45486216,12.7239917 C8.3769584,16.1528907 12.3430533,17.6873855 17.4260974,17.3358068 C17.6279232,17.3218471 17.7845112,17.1540543 17.7845112,16.9517397 L17.7845331,14.5801466 C17.7845331,14.3893738 17.6448513,14.2273871 17.4561183,14.1993355 C17.0031479,14.1319652 16.5307113,14.0224346 16.0385306,13.8712264 C15.4467877,13.6894305 14.8816965,13.4728014 14.3434907,13.2212625 C14.1959021,13.1522846 14.0208738,13.1836743 13.906447,13.2996475 L12.4002707,14.826139 C11.8389686,15.3950263 10.9716107,15.5298252 10.2641267,15.1581239 C9.03386475,14.5117595 7.96562662,13.6945439 7.06281848,12.7079375 C6.17616737,11.7389878 5.2778266,10.5842051 4.36656792,9.24332757 C3.88069722,8.52838993 3.96645106,7.56999826 4.57152693,6.9526765 L5.94290699,5.55353437 C6.05294379,5.44127057 6.08367947,5.27335728 6.02056895,5.12942837 C5.71388118,4.43021227 5.49393594,3.8629128 5.35972258,3.42125548 C5.23261504,3.00298138 5.13890802,2.45799438 5.07357911,1.77817259 C5.05460446,1.58071962 4.88871043,1.4300033 4.69034703,1.4300033 L1.8388956,1.43 C1.63491576,1.43 1.4663246,1.58912228 1.45453799,1.79273362 Z M4.69034785,3.30242105e-06 C5.62549203,3.30242105e-06 6.40756916,0.710527897 6.49702172,1.64138388 C6.55402453,2.23456324 6.63267216,2.69196692 6.72794221,3.00547303 C6.84311811,3.38448359 7.0441864,3.9030942 7.33016835,4.55510319 C7.62776767,5.23380374 7.48289316,6.02527344 6.96414949,6.55451576 L5.59276943,7.95365789 C5.46442107,8.08460385 5.44623105,8.28789694 5.54929346,8.4395488 C6.42375918,9.72628712 7.28033431,10.8273816 8.11779064,11.7425703 C8.90775896,12.6058632 9.84376796,13.3219219 10.9292224,13.8922061 C11.0792951,13.971052 11.2632806,13.9424582 11.382351,13.8217788 L12.8885272,12.2952873 C13.427968,11.7485567 14.2531472,11.6005686 14.9489605,11.9257679 C15.4263694,12.1488924 15.9294662,12.3417558 16.4584848,12.5042814 C16.8842006,12.6350703 17.2869611,12.728447 17.6664197,12.7848839 C18.5559736,12.9170992 19.2145331,13.6808201 19.2145331,14.5801532 L19.2145112,16.9517462 C19.2145112,17.9055267 18.4762774,18.6965856 17.5247704,18.7623984 C12.0036097,19.1442803 7.59319261,17.4378758 4.36646961,13.6515161 C1.2348717,9.97677984 -0.220234751,5.98607027 0.0269244407,1.71015305 C0.0824998865,0.750097817 0.877233725,0 1.83889643,0 L4.69034785,3.30242105e-06 Z" id="path-1"></path>
    </defs>
    <g id="Symbols" stroke="none" stroke-width="1" fill="none" fill-rule="evenodd">
        <g id="Module/Footer" transform="translate(-133.000000, -157.000000)">
            <g id="Group-2" transform="translate(132.000000, 156.000000)">
                <g id="icon/phone">
                    <g id="color-palette/white-1" transform="translate(1.100000, 1.100000)">
                        <mask id="mask-2" fill="white">
                            <use xlink:href="#path-1"></use>
                        </mask>
                        <use id="Mask" fill="#979797" fill-rule="nonzero" xlink:href="#path-1"></use>
                        <g id="color-palette/gray-90" mask="url(#mask-2)" fill="#323848">
                            <g transform="translate(-1.100000, -1.100000)" id="Rectangle-Copy-2">
                                <rect x="0" y="0" width="23" height="23"></rect>
                            </g>
                        </g>
                    </g>
                </g>
            </g>
        </g>
    </g>
</svg>